<svg data-v-423bf9ae="" xmlns="http://www.w3.org/2000/svg" viewBox="0 0 275 90" class="iconLeft"><!----><!----><!----><g data-v-423bf9ae="" id="eef7ea4d-5184-48a5-bcc3-d3adb6af1edc" fill="#1F1E1A" transform="matrix(4.367276689790059,0,0,4.367276689790059,99.98027035124879,15.436729009140684)"><path d="M10.60 10.08C10.32 10.08 9.35 10.11 8.69 9.24C8.69 9.24 7.77 7.99 5.31 4.70C8.33 0.83 9.21 0.64 10.19 0.64L10.19 0.43L5.95 0.43L5.95 0.64C8.25 0.69 6.23 3.01 5.82 3.47L3.98 5.71C3.98 5.71 4.66 6.61 5.46 7.76C6.94 9.87 7.27 10.29 8.75 10.29L10.60 10.29ZM0.53 0.43L0.53 0.64C1.13 0.64 1.47 0.95 1.47 1.82L1.47 8.69C1.47 9.65 1.12 10.08 0.53 10.08L0.53 10.29L4.20 10.29L4.20 10.08C3.60 10.08 3.21 9.65 3.21 8.69L3.21 1.82C3.21 0.80 3.74 0.64 4.35 0.64L4.35 0.43ZM12.47 2.55C12.94 2.55 13.33 2.18 13.33 1.72C13.33 1.26 12.94 0.88 12.47 0.88C12.01 0.88 11.65 1.26 11.65 1.72C11.65 2.18 12.01 2.55 12.47 2.55ZM13.93 10.08C13.43 9.94 13.36 9.56 13.36 8.79L13.36 3.70L11.17 4.17L11.17 4.38C11.75 4.62 11.89 4.82 11.89 5.29L11.89 8.79C11.89 9.51 11.86 9.91 11.33 10.08L11.33 10.29L13.93 10.29ZM21.45 10.08C20.94 9.95 20.87 9.56 20.87 8.79L20.87 5.88C20.87 4.19 20.13 3.70 19.03 3.70C18.14 3.70 17.09 4.34 16.79 5.18L16.79 3.70L14.60 4.17L14.60 4.38C15.18 4.62 15.30 4.79 15.30 5.28L15.30 8.81C15.30 9.52 15.29 9.93 14.76 10.08L14.76 10.29L17.36 10.29L17.36 10.08C16.87 9.94 16.79 9.58 16.79 8.81L16.79 5.73C16.84 5.19 17.47 4.55 18.10 4.55C18.91 4.55 19.39 5.11 19.39 5.92L19.39 8.79C19.39 9.51 19.36 9.93 18.83 10.08L18.83 10.29L21.45 10.29L21.45 10.08ZM27.27 8.30C27.27 9.28 26.63 9.97 25.69 9.97C24.51 9.97 23.93 9.04 23.93 6.80C23.93 4.62 24.61 3.91 25.59 3.91C26.42 3.91 27.27 4.54 27.27 6.09ZM29.46 9.91C28.88 9.87 28.74 9.74 28.74 9.06L28.74-0.10L26.56 0.35L26.56 0.56C27.13 0.71 27.27 0.88 27.27 1.37L27.27 4.16C26.82 3.88 26.24 3.70 25.56 3.70C23.66 3.70 22.20 4.75 22.20 6.97C22.20 9.04 23.44 10.42 25.17 10.42C25.84 10.42 26.82 10.11 27.27 9.34L27.27 10.15C27.27 10.15 27.27 10.46 27.66 10.40L29.46 10.12ZM32.73 10.08C32.23 9.95 32.16 9.56 32.16 8.79L32.16-0.10L29.97 0.35L29.97 0.56C30.55 0.71 30.67 0.92 30.67 1.41L30.67 8.79C30.67 9.51 30.65 9.93 30.11 10.08L30.11 10.29L32.73 10.29L32.73 10.08ZM37.23 3.82L37.23 4.02C38.85 4.00 37.95 6.19 37.95 6.19L37.11 8.40L35.50 4.96C35.50 4.96 35.08 4.02 35.90 4.02L35.90 3.82L32.80 3.82L32.80 4.02C33.01 4.03 33.49 4.06 33.74 4.65C33.74 4.65 35.10 7.53 36.37 10.37L35.78 11.98C35.57 12.54 35.25 12.68 35.20 12.50C35.14 12.29 35 12.10 34.78 12.00C34.34 11.80 33.84 12.00 33.64 12.43C33.46 12.87 33.64 13.37 34.08 13.57C34.37 13.71 34.80 13.62 35.03 13.44C35.27 13.26 35.66 12.89 35.99 12.01L38.15 6.23C39.00 4.10 39.56 4.02 39.96 4.02L39.96 3.82Z"></path></g><defs data-v-423bf9ae=""><linearGradient data-v-423bf9ae="" gradientTransform="rotate(25)" id="a2c5bc53-ed95-4512-8dc1-d4ecaf8cd4b0" x1="0%" y1="0%" x2="100%" y2="0%"><stop data-v-423bf9ae="" offset="0%" style="stop-color: rgb(9, 120, 166); stop-opacity: 1;"></stop><stop data-v-423bf9ae="" offset="100%" style="stop-color: rgb(251, 148, 71); stop-opacity: 1;"></stop></linearGradient></defs><g data-v-423bf9ae="" id="e230c786-c908-4cf0-92b2-9972d7672d58" transform="matrix(1.0188827674341834,0,0,1.0188827674341834,-219.2188133465234,-215.00000452034317)" stroke="none" fill="url(#a2c5bc53-ed95-4512-8dc1-d4ecaf8cd4b0)"><path d="M237.703 264.65a29.055 29.055 0 00-4.379-.336c-.382-.113-1.907-.645-3.405-2.284-.703-.772-3.092-3.307-5.7-5.104v-11.322a4.198 4.198 0 00-4.191-4.192 4.2 4.2 0 00-3.98 2.88 4.125 4.125 0 00-.152.643v.001c-.006.036-.014.07-.019.106a1.092 1.092 0 00-.009.115v.004l-.056 2.195c-.131 5.144-.226 8.861-.194 11.532.072 6.335.924 7.598 3.202 10.975.449.664.957 1.417 1.533 2.317 3.384 5.292 9.362 8.298 13.318 10.287 1.682.846 3.587 1.804 3.917 2.34.079.131.743 1.491-.282 9.11a112.493 112.493 0 01-.768 4.914 1.126 1.126 0 001.107 1.33l13.292.005a1.125 1.125 0 001.126-1.126v-19.56c-.001-.13-.049-3.223-1.847-6.599-1.663-3.117-5.183-7.076-12.513-8.231zm-19.556-19.515c.007-.031.016-.061.024-.091.008-.026.015-.053.024-.079l.032-.087c.01-.025.019-.051.03-.075l.04-.083.036-.071.047-.079c.014-.022.026-.044.041-.065l.055-.075.045-.061.062-.07.05-.056.068-.065c.018-.017.035-.034.054-.05.024-.021.05-.041.075-.06.019-.014.037-.03.057-.044.027-.019.054-.036.082-.054l.059-.038c.029-.017.059-.032.088-.047l.061-.032c.031-.015.063-.028.095-.041.021-.009.042-.019.063-.026.033-.013.067-.022.101-.033l.063-.021c.036-.01.074-.017.111-.025l.06-.013c.042-.007.084-.012.127-.017l.049-.006a1.944 1.944 0 012.121 1.933v10.02l-.062-.026-.078-.033a7.937 7.937 0 00-.588-.229l-.087-.028a8.894 8.894 0 00-.234-.074c-.029-.009-.059-.016-.088-.024-.076-.021-.151-.042-.226-.06l-.088-.019c-.073-.016-.146-.032-.219-.045l-.086-.014a4.05 4.05 0 00-.213-.031l-.084-.009c-.07-.007-.139-.014-.208-.018l-.082-.002c-.054-.002-.107-.005-.16-.005l-.031.001a3.978 3.978 0 00-.365.02l-.107.013a4.011 4.011 0 00-.331.057l-.035.006c-.25.059-.489.146-.715.258.032-2.167.099-4.794.18-7.967l.054-2.1.014-.078.019-.082zm16.533 35.321c-3.959-1.99-9.382-4.717-12.433-9.487a107.714 107.714 0 00-1.563-2.364c-1.401-2.076-2.14-3.172-2.506-5.211.082.091.166.183.252.275 1.598 1.704 3.684 3.278 5.064 4.32.615.464 1.196.902 1.395 1.102l.016.016.001.001c.11.12.292.336.502.587 1.925 2.293 7.036 8.387 13.002 7.724a1.126 1.126 0 00-.248-2.237c-4.762.533-9.315-4.893-11.029-6.934a19.702 19.702 0 00-.56-.652l-.031-.033a.18.18 0 00-.019-.02.031.031 0 00-.004-.006c-.307-.317-.878-.748-1.667-1.344-1.398-1.055-3.313-2.5-4.779-4.064l-.005-.005c-.99-1.059-1.606-1.996-1.832-2.791v-.002a2.264 2.264 0 01-.096-.586 1.554 1.554 0 01.224-.842c.266-.446.555-.56.749-.604.418-.1 1.409-.077 3.344 1.16l.025.016.003.002c2.64 1.696 5.27 4.521 5.771 5.072 2.23 2.441 4.586 2.972 4.685 2.993.078.017.158.024.237.024 1.468 0 2.873.104 4.175.309 12.164 1.917 12.451 12.194 12.457 12.617v13.451h-10.112c.909-7.491.12-8.797-.19-9.307-.667-1.088-2.322-1.92-4.828-3.18zm4.3 17.455c.118-.709.268-1.656.42-2.717h10.41v2.721l-10.83-.004zM296.179 247.199l-.053-2.038c0-.018-.005-.034-.006-.052-.002-.022.001-.045-.003-.067a4.196 4.196 0 00-4.15-3.63 4.197 4.197 0 00-4.192 4.192v11.327c-2.489 1.703-4.767 4.074-5.7 5.097-1.493 1.635-3.024 2.171-3.405 2.284-9.519.042-14.114 4.123-16.294 7.548-2.381 3.742-2.442 7.464-2.443 7.631v19.549a1.125 1.125 0 001.125 1.126h.001l13.292-.005a1.125 1.125 0 001.107-1.329 100.814 100.814 0 01-.763-4.819 1.223 1.223 0 00-.027-.204c-.562-4.271-.781-8.141-.263-8.995.332-.542 2.238-1.501 3.921-2.347 3.955-1.989 9.933-4.995 13.316-10.285.576-.901 1.085-1.654 1.533-2.319 3.453-5.118 3.444-5.447 3.004-22.664zm-33.996 50.715v-2.72h10.395c.147 1.013.298 1.944.43 2.716l-10.825.004zm11.399-20.497c5.96.661 11.077-5.43 13.002-7.723.211-.25.392-.467.502-.586.165-.179.804-.661 1.422-1.127 1.528-1.154 3.665-2.767 5.284-4.569-.382 2.077-1.135 3.192-2.483 5.191-.455.676-.973 1.441-1.563 2.365-3.051 4.77-8.473 7.496-12.432 9.487-2.505 1.26-4.161 2.092-4.831 3.185-.884 1.458-.655 5.558-.205 9.302h-10.095v-13.44c.001-.032.053-3.229 2.092-6.433 2.747-4.316 7.64-6.505 14.542-6.505.08 0 .159-.009.236-.025.1-.021 2.454-.551 4.684-2.992 1.73-1.895 3.869-3.84 5.746-5.056.027-.017.054-.033.079-.052 1.139-.728 2.176-1.181 2.96-1.181.064 0 .127.004.188.01.405.041.681.23.92.633 1.394 2.341-4.122 6.505-6.478 8.283-.932.703-1.431 1.085-1.72 1.397-.146.158-.333.382-.571.665-1.713 2.04-6.26 7.463-11.029 6.933a1.127 1.127 0 00-.25 2.238zm19.355-22.389c-.899-.092-1.895.159-2.91.614v-10.038c0-1.07.87-1.941 1.94-1.941.968 0 1.764.683 1.91 1.629l.051 1.964c.084 3.292.152 5.941.184 8.105a3.401 3.401 0 00-1.175-.333zM283.741 225.909c0-4.295-1.503-7.924-4.347-10.494-2.555-2.309-6.021-3.581-9.759-3.581-5.468 0-10.539 2.719-13.636 7.206-3.099-4.486-8.171-7.206-13.64-7.206-3.739 0-7.205 1.271-9.76 3.581-2.845 2.57-4.349 6.199-4.349 10.494 0 15.503 26.019 32.946 27.126 33.68a1.129 1.129 0 001.246 0c1.108-.734 27.119-18.176 27.119-33.68zM256 257.288c-3.967-2.758-25.497-18.33-25.497-31.378 0-8.123 6.146-11.823 11.857-11.823 5.27 0 10.116 2.929 12.648 7.643a1.124 1.124 0 001.984 0c2.531-4.714 7.376-7.643 12.645-7.643 5.709 0 11.854 3.7 11.854 11.823-.001 13.048-21.525 28.62-25.491 31.378z"></path></g><!----></svg>